# xmcd
#
# Track frame offsets:
# 150
# 48230
# 69569
# 84554
# 104250
# 126762
# 146671
# 167947
# 183754
# 203144
# 232567
# 255667
# 272937
#
# Disc length: 3850 seconds
#
# Revision: 0
# Processed by: cddbd v1.5.2PL0 Copyright (c) Steve Scherf et al.
# Submitted via: TinyPlayer 2.8
#
DISCID=b10f080d
DTITLE=Various Artist - An All Star Tribute to Lynyrd Skynyrd
DYEAR=2007
DGENRE=Southern Rock
TTITLE0=Molly Hatchet with Charlie Daniels - Free Bird
TTITLE1=Outlaws - Sweet Home Alabama
TTITLE2=Artimus Pyle, Ed King and The Original Honkettes - Double Trouble
TTITLE3=Great White - Saturday Night Special
TTITLE4=Canned Heat - That Smell
TTITLE5=Blackfoot - Seasons
TTITLE6=Walter Trout - Gimme Three Steps
TTITLE7=Black Oak Arkansas - What's Your Name
TTITLE8=Pat Travers - Gimme Back My Bullets
TTITLE9=Dangerous Toys - Simple Man
TTITLE10=Atlanta Rhythm Section - Call Me the Breeze
TTITLE11=Rick Derringer - You Got That Right
TTITLE12=Joey Covington - Swamp Music
EXTD=Location:  - UPC: 741157168525 - Catalogue number: CLP 1685 - Label: Deadline Music - ASIN: B000MM1FYQ - Release Date: 2007 03 13 - Discogs:  - MUSICBRAINZ_ALBUMID: c32fa5f5-2bc1-45a9-990f-1eda1954acf2 - AMG: r951460;
EXTT0=
EXTT1=
EXTT2=
EXTT3=
EXTT4=
EXTT5=
EXTT6=
EXTT7=Credited as "Jim Dandy's Black Oak Arkansas"
EXTT8=
EXTT9=
EXTT10=
EXTT11=
EXTT12=
PLAYORDER=
